<svg id="Group_415" data-name="Group 415" xmlns="http://www.w3.org/2000/svg" width="16.909" height="32.799" viewBox="0 0 16.909 32.799">
  <path id="Icon_ionic-ios-attach" data-name="Icon ionic-ios-attach" d="M25.646,11.7A1.143,1.143,0,0,0,24.5,12.842V27.071a5.9,5.9,0,0,1-1.61,4.033,5.793,5.793,0,0,1-4.062,1.735h-1a5.689,5.689,0,0,1-4.011-1.8A5.877,5.877,0,0,1,12.075,27V8.64a3.978,3.978,0,0,1,1.266-2.891,4.355,4.355,0,0,1,3-1.193A4.074,4.074,0,0,1,20.456,8.64V25.783a2.313,2.313,0,0,1-2.123,2.357,2.25,2.25,0,0,1-2.064-2.357V16a1.142,1.142,0,0,0-2.284,0v9.779a4.391,4.391,0,0,0,7.473,3.294,4.624,4.624,0,0,0,1.281-3.294V8.64a6.4,6.4,0,0,0-6.419-6.39,6.423,6.423,0,0,0-4.553,1.867,6.315,6.315,0,0,0-1.9,4.531V27.005a8.18,8.18,0,0,0,2.386,5.709,7.912,7.912,0,0,0,5.57,2.335h1a8,8,0,0,0,5.556-2.35,8.223,8.223,0,0,0,1.749-2.533,7.663,7.663,0,0,0,.651-3.082V12.842A1.132,1.132,0,0,0,25.646,11.7Z" transform="translate(-9.872 -2.25)" fill="#312c30"/>
</svg>
