<svg xmlns="http://www.w3.org/2000/svg" width="24.485" height="21.76" viewBox="0 0 24.485 21.76">
  <path id="Icon_awesome-edit" data-name="Icon awesome-edit" d="M17.114,3.539l3.834,3.834a.416.416,0,0,1,0,.587l-9.284,9.284-3.945.438a.827.827,0,0,1-.914-.914l.438-3.945,9.284-9.284A.416.416,0,0,1,17.114,3.539ZM24,2.566,21.926.492a1.663,1.663,0,0,0-2.346,0L18.075,2a.416.416,0,0,0,0,.587l3.834,3.834a.416.416,0,0,0,.587,0l1.5-1.5a1.663,1.663,0,0,0,0-2.346ZM16.323,14.719v4.327H2.721V5.444h9.768A.523.523,0,0,0,12.85,5.3l1.7-1.7a.51.51,0,0,0-.361-.871H2.04A2.041,2.041,0,0,0,0,4.764V19.727a2.041,2.041,0,0,0,2.04,2.04H17a2.041,2.041,0,0,0,2.04-2.04V13.019a.511.511,0,0,0-.871-.361l-1.7,1.7A.523.523,0,0,0,16.323,14.719Z" transform="translate(0 -0.007)" fill="#2d3c59"/>
</svg>
