<svg xmlns="http://www.w3.org/2000/svg" width="18.938" height="19.469" viewBox="0 0 18.938 19.469">
  <path id="Icon_material-settings" data-name="Icon material-settings" d="M20.11,13.688a6.712,6.712,0,0,0,0-1.908l2.054-1.606a.491.491,0,0,0,.117-.623L20.333,6.183a.489.489,0,0,0-.594-.214l-2.424.973a7.112,7.112,0,0,0-1.645-.954l-.37-2.58A.475.475,0,0,0,14.824,3H10.93a.475.475,0,0,0-.477.409l-.37,2.58a7.479,7.479,0,0,0-1.645.954L6.014,5.969a.475.475,0,0,0-.594.214L3.473,9.551a.48.48,0,0,0,.117.623L5.644,11.78a7.72,7.72,0,0,0-.068.954,7.72,7.72,0,0,0,.068.954L3.59,15.295a.491.491,0,0,0-.117.623L5.42,19.286a.489.489,0,0,0,.594.214l2.424-.973a7.112,7.112,0,0,0,1.645.954l.37,2.58a.475.475,0,0,0,.477.409h3.894a.475.475,0,0,0,.477-.409l.37-2.58a7.479,7.479,0,0,0,1.645-.954l2.424.973a.475.475,0,0,0,.594-.214l1.947-3.368a.491.491,0,0,0-.117-.623L20.11,13.688Zm-7.233,2.453a3.407,3.407,0,1,1,3.407-3.407A3.411,3.411,0,0,1,12.877,16.141Z" transform="translate(-3.406 -3)" fill="#f8f7f8"/>
</svg>
