<svg xmlns="http://www.w3.org/2000/svg" width="29.921" height="21.76" viewBox="0 0 29.921 21.76">
  <path id="Icon_awesome-readme" data-name="Icon awesome-readme" d="M27.443,3.27H20.181a5.341,5.341,0,0,0-5.215,4.171A5.345,5.345,0,0,0,9.75,3.27H2.493A2.494,2.494,0,0,0,0,5.763V18.531a2.494,2.494,0,0,0,2.493,2.493h4.66c5.309,0,6.893,1.267,7.652,3.9a.166.166,0,0,0,.312,0c.764-2.628,2.348-3.9,7.652-3.9h4.66a2.494,2.494,0,0,0,2.493-2.493V5.768a2.5,2.5,0,0,0-2.478-2.5ZM12.571,17.056a.181.181,0,0,1-.182.182H4.062a.181.181,0,0,1-.182-.182v-1.19a.181.181,0,0,1,.182-.182h8.332a.181.181,0,0,1,.182.182v1.19Zm0-3.164a.181.181,0,0,1-.182.182H4.062a.181.181,0,0,1-.182-.182V12.7a.181.181,0,0,1,.182-.182h8.332a.181.181,0,0,1,.182.182v1.19Zm0-3.164a.181.181,0,0,1-.182.182H4.062a.181.181,0,0,1-.182-.182V9.539a.181.181,0,0,1,.182-.182h8.332a.181.181,0,0,1,.182.182v1.19Zm13.47,6.322a.181.181,0,0,1-.182.182H17.532a.181.181,0,0,1-.182-.182v-1.19a.181.181,0,0,1,.182-.182h8.332a.181.181,0,0,1,.182.182v1.19Zm0-3.164a.181.181,0,0,1-.182.182H17.532a.181.181,0,0,1-.182-.182V12.7a.181.181,0,0,1,.182-.182h8.332a.181.181,0,0,1,.182.182v1.19Zm0-3.164a.181.181,0,0,1-.182.182H17.532a.181.181,0,0,1-.182-.182V9.539a.181.181,0,0,1,.182-.182h8.332a.181.181,0,0,1,.182.182v1.184Z" transform="translate(0 -3.27)" fill="#2d3c59"/>
</svg>
