<svg xmlns="http://www.w3.org/2000/svg" width="19" height="22.167" viewBox="0 0 19 22.167">
  <path id="Icon_ionic-ios-git-network" data-name="Icon ionic-ios-git-network" d="M20.007,2.25a3.5,3.5,0,0,0-2.627,5.8,3.458,3.458,0,0,0,1.89,1.113V11.3L14,14.041,8.735,11.3V9.167a3.5,3.5,0,1,0-3.37-1.113,3.458,3.458,0,0,0,1.89,1.113v2.84a.346.346,0,0,0,.193.312l5.814,3.008V17.5a3.494,3.494,0,1,0,3.365,1.113,3.458,3.458,0,0,0-1.89-1.113V15.327l5.814-3.008a.346.346,0,0,0,.193-.312V9.167a3.5,3.5,0,0,0-.737-6.917ZM5.974,5.748Z" transform="translate(-4.5 -2.25)" fill="#fff"/>
</svg>
