<svg xmlns="http://www.w3.org/2000/svg" width="19.937" height="27.964" viewBox="0 0 19.937 27.964">
  <g id="ldkJyl.tif" transform="translate(524.937 -112.182)">
    <g id="Group_395" data-name="Group 395" transform="translate(-524.937 112.182)">
      <path id="Path_1345" data-name="Path 1345" d="M-523.532,456.284c.973.4,1.916.8,2.863,1.18a29.364,29.364,0,0,0,2.833,1.1,7.017,7.017,0,0,0,6.691-1.444c.044-.036.086-.074.131-.11a.6.6,0,0,1,.079-.041,3.5,3.5,0,0,0,2.717,1.438,10.794,10.794,0,0,1-4.171,2.882c.085,0,.17.013.255.013,1.444,0,2.887,0,4.331,0A2.728,2.728,0,0,1-505,464.138c0,.16,0,.321,0,.505h-19.886a2.746,2.746,0,0,1,2.093-3.267,6.333,6.333,0,0,1,1.218-.07c.754-.01,1.508,0,2.271-.054l-5.369-2.219Z" transform="translate(524.937 -436.679)" fill="#fff"/>
      <path id="Path_1346" data-name="Path 1346" d="M-404.636,123.589l.924-2.241-.806-.351,2.811-6.781-1.244-.522.627-1.512,6.843,2.829-.623,1.514-1.251-.508-2.815,6.776-.818-.321-.936,2.239Z" transform="translate(411.49 -112.182)" fill="#fff"/>
      <path id="Path_1347" data-name="Path 1347" d="M-293.306,229.13c-.138-.7-.223-1.4-.419-2.063a6.847,6.847,0,0,0-2.761-3.779c-.191-.132-.239-.229-.142-.45.359-.821.695-1.653,1.04-2.483a10.1,10.1,0,0,1,5.125,9.761A3.477,3.477,0,0,0-293.306,229.13Z" transform="translate(309.681 -214.192)" fill="#fff"/>
      <path id="Path_1348" data-name="Path 1348" d="M-269.95,391.485a2.562,2.562,0,0,1-2.565,2.541,2.551,2.551,0,0,1-2.529-2.574,2.567,2.567,0,0,1,2.551-2.528A2.55,2.55,0,0,1-269.95,391.485Z" transform="translate(289.281 -373.157)" fill="#fff"/>
      <path id="Path_1349" data-name="Path 1349" d="M-506.223,376.419l-1.475-.618.626-1.512,8.858,3.661-.626,1.516-5.858-2.419-.732,1.75-1.513-.625Z" transform="translate(508.68 -359.355)" fill="#fff"/>
    </g>
  </g>
</svg>
