<svg xmlns="http://www.w3.org/2000/svg" width="38.426" height="43.738" viewBox="0 0 38.426 43.738">
  <g id="Group_420" data-name="Group 420" transform="translate(0 0)">
    <path id="Path_1359" data-name="Path 1359" d="M300.139,76.951A8.929,8.929,0,0,0,302.19,75.9a1.389,1.389,0,0,0,.583-1.573,2.2,2.2,0,0,0-.705-1.1.919.919,0,0,0-.738-.272c-.293.072-.589.451-.809,1.3a15.4,15.4,0,0,0-.383,2.7m-6.614,0a15.353,15.353,0,0,0-.383-2.7c-.22-.846-.515-1.225-.809-1.3a.92.92,0,0,0-.738.272,2.2,2.2,0,0,0-.7,1.1,1.389,1.389,0,0,0,.583,1.573A8.928,8.928,0,0,0,293.525,76.951Zm1.157,15.069h4.3a124.448,124.448,0,0,1-.726-12.771,11.679,11.679,0,0,1-2.848,0A124.453,124.453,0,0,1,294.681,92.02ZM279.009,67.66c-.212,2.656,1.434,3.825.956,5.418s-2.5,4.834-2.337,5.472,2.258.664,2.165,2.125S279.58,82,279.7,82.15a9.125,9.125,0,0,0,.81.651s-.332.783-.252,1.023,1.169.876.982,1.965a2.414,2.414,0,0,0,.85,2.616c.876.648,5.949-.577,6.958.648a7.889,7.889,0,0,1,.65,1,1.152,1.152,0,0,0-.343.819h0a1.156,1.156,0,0,0,1.154,1.153h2.351a121.942,121.942,0,0,0,.743-13.14,10.883,10.883,0,0,1-3.158-1.495,3.109,3.109,0,0,1-1.305-3.521,4.053,4.053,0,0,1,1.3-2.037,2.66,2.66,0,0,1,2.325-.633c.9.221,1.71,1,2.126,2.6a18.971,18.971,0,0,1,.462,3.618,9.958,9.958,0,0,0,2.956,0,18.992,18.992,0,0,1,.462-3.618c.416-1.6,1.224-2.379,2.126-2.6a2.659,2.659,0,0,1,2.325.633,4.051,4.051,0,0,1,1.3,2.037,3.108,3.108,0,0,1-1.305,3.521,10.883,10.883,0,0,1-3.158,1.495,121.911,121.911,0,0,0,.744,13.14h2.351a1.157,1.157,0,0,0,1.154-1.153h0a1.157,1.157,0,0,0-1.154-1.154h.145c-.307-8.613,7.687-9.9,7.687-18.86A14.156,14.156,0,0,0,296.832,56.7C289.208,56.7,279.773,58.116,279.009,67.66Z" transform="translate(-277.619 -56.697)" fill="#2d3c59" fill-rule="evenodd" opacity="0.3"/>
    <path id="Path_1360" data-name="Path 1360" d="M306.458,76.951a8.929,8.929,0,0,0,2.051-1.054,1.389,1.389,0,0,0,.583-1.573,2.2,2.2,0,0,0-.705-1.1.92.92,0,0,0-.738-.272c-.293.072-.589.451-.809,1.3a15.4,15.4,0,0,0-.383,2.7m-6.614,0a15.35,15.35,0,0,0-.383-2.7c-.22-.846-.515-1.225-.809-1.3a.92.92,0,0,0-.738.272,2.2,2.2,0,0,0-.7,1.1,1.389,1.389,0,0,0,.583,1.573A8.928,8.928,0,0,0,299.843,76.951ZM305.3,92.02H301a124.442,124.442,0,0,0,.726-12.771,11.679,11.679,0,0,0,2.848,0A124.439,124.439,0,0,0,305.3,92.02Zm15.672-24.36c.213,2.656-1.434,3.825-.956,5.418s2.5,4.834,2.338,5.472-2.258.664-2.165,2.125.212,1.328.093,1.474a9.059,9.059,0,0,1-.81.651s.332.783.252,1.023-1.168.876-.982,1.965a2.414,2.414,0,0,1-.851,2.616c-.876.648-5.949-.577-6.958.648a7.933,7.933,0,0,0-.65,1,1.15,1.15,0,0,1,.343.819h0a1.157,1.157,0,0,1-1.154,1.153h-2.351a121.909,121.909,0,0,1-.744-13.14,10.882,10.882,0,0,0,3.158-1.495,3.108,3.108,0,0,0,1.305-3.521,4.051,4.051,0,0,0-1.3-2.037,2.659,2.659,0,0,0-2.325-.633c-.9.221-1.711,1-2.126,2.6a18.994,18.994,0,0,0-.462,3.618,9.958,9.958,0,0,1-2.955,0,18.966,18.966,0,0,0-.462-3.618c-.416-1.6-1.225-2.379-2.126-2.6a2.66,2.66,0,0,0-2.325.633,4.054,4.054,0,0,0-1.3,2.037,3.109,3.109,0,0,0,1.305,3.521,10.883,10.883,0,0,0,3.158,1.495,121.945,121.945,0,0,1-.743,13.14h-2.351a1.156,1.156,0,0,1-1.154-1.153h0a1.157,1.157,0,0,1,1.154-1.154h-.146c.307-8.613-7.687-9.9-7.687-18.86A14.156,14.156,0,0,1,303.15,56.7C310.774,56.7,320.209,58.116,320.973,67.66Z" transform="translate(-283.938 -56.697)" fill="#2d3c59" fill-rule="evenodd" opacity="0.3"/>
    <g id="Group_419" data-name="Group 419" transform="translate(5.057 0)">
      <path id="Path_1169" data-name="Path 1169" d="M305.174,140.427h12.645a1.157,1.157,0,0,1,1.154,1.154h0a1.157,1.157,0,0,1-1.154,1.153H305.174a1.157,1.157,0,0,1-1.154-1.153h0a1.157,1.157,0,0,1,1.154-1.154m3.224,4.207h6.2a1.157,1.157,0,0,1,1.154,1.153h0a1.157,1.157,0,0,1-1.154,1.154h-6.2a1.157,1.157,0,0,1-1.153-1.154h0A1.157,1.157,0,0,1,308.4,144.634Z" transform="translate(-297.34 -103.203)" fill="#2d3c59" fill-rule="evenodd"/>
      <path id="Path_1170" data-name="Path 1170" d="M306.458,76.951a8.929,8.929,0,0,0,2.051-1.054,1.389,1.389,0,0,0,.583-1.573,2.2,2.2,0,0,0-.705-1.1.92.92,0,0,0-.738-.272c-.293.072-.589.451-.809,1.3a15.4,15.4,0,0,0-.383,2.7m-6.614,0a15.35,15.35,0,0,0-.383-2.7c-.22-.846-.515-1.225-.809-1.3a.92.92,0,0,0-.738.272,2.2,2.2,0,0,0-.7,1.1,1.389,1.389,0,0,0,.583,1.573A8.928,8.928,0,0,0,299.843,76.951ZM305.3,92.02H301a124.442,124.442,0,0,0,.726-12.771,11.679,11.679,0,0,0,2.848,0A124.439,124.439,0,0,0,305.3,92.02Zm4.983-1.972,0,0,.006.006.009.01,0,0,.006.006.019.02.009.011,0,0,.006.007.009.01,0,0,.006.007.008.011,0,0,.006.008.008.011,0,0,.005.007.008.012.008.012.007.012,0,0,.005.008.008.012,0,0,.005.009.008.012.007.012.008.012,0,0,.005.009,0,0,.011.02.007.012,0,0,0,.009.006.013,0,0,0,.009.006.013v0l0,.01.006.013v0l0,.01.005.013v0l0,.011.005.013v0l0,.011,0,.014v0l0,.011,0,.013v0l0,.012,0,.013v0l0,.012,0,.014v0l0,.012,0,.014v0l0,.012,0,.014h0l0,.013,0,.014h0l0,.013,0,.014h0l0,.013,0,.015h0l0,.013,0,.014h0v.028h0l0,.029h0v.029h0v.03h0a1.157,1.157,0,0,1-1.154,1.153h-2.351a121.909,121.909,0,0,1-.744-13.14,10.882,10.882,0,0,0,3.158-1.495,3.108,3.108,0,0,0,1.305-3.521,4.051,4.051,0,0,0-1.3-2.037,2.659,2.659,0,0,0-2.325-.633c-.9.221-1.711,1-2.126,2.6a18.994,18.994,0,0,0-.462,3.618,9.958,9.958,0,0,1-2.955,0,18.966,18.966,0,0,0-.462-3.618c-.416-1.6-1.225-2.379-2.126-2.6a2.66,2.66,0,0,0-2.325.633,4.054,4.054,0,0,0-1.3,2.037,3.109,3.109,0,0,0,1.305,3.521,10.883,10.883,0,0,0,3.158,1.495,121.945,121.945,0,0,1-.743,13.14h-2.351a1.156,1.156,0,0,1-1.154-1.153h0v-.03h0v-.029h0l0-.029h0v-.028h0v-.014l0-.013h0l0-.015,0-.013h0l0-.014,0-.013h0l0-.014,0-.013h0l0-.014,0-.012v0l0-.014,0-.012v0l0-.014,0-.012v0l0-.013,0-.012v0l0-.013,0-.011v0l0-.014,0-.011v0l0-.013,0-.011v0l.005-.013,0-.01v0l.006-.013,0-.01v0l.006-.013,0-.009v0l.006-.013,0-.009v0l.007-.012.011-.02,0,0,.005-.009,0,0,.008-.012.007-.012.007-.012.005-.009,0,0,.008-.012.005-.008,0,0,.008-.012.008-.012.008-.012.005-.007,0,0,.008-.011.006-.008,0,0,.008-.011.006-.007,0,0,.009-.01.006-.007,0,0,.009-.011.019-.02.006-.006,0,0,.01-.01.006-.006,0,0a1.151,1.151,0,0,1,.811-.335h-.146c.307-8.613-7.687-9.9-7.687-18.86a14.155,14.155,0,1,1,28.311,0c0,8.96-7.994,10.247-7.687,18.86h-.145A1.15,1.15,0,0,1,310.283,90.048Z" transform="translate(-288.995 -56.697)" fill="#2d3c59" fill-rule="evenodd"/>
    </g>
  </g>
</svg>
