<svg id="Group_401" data-name="Group 401" xmlns="http://www.w3.org/2000/svg" width="35.892" height="35.892" viewBox="0 0 35.892 35.892">
  <g id="Group_400" data-name="Group 400">
    <g id="Group_398" data-name="Group 398">
      <path id="Path_1350" data-name="Path 1350" d="M382.054,819.382a17.943,17.943,0,0,0-15.079,27.672l-2.726,6.005a1.567,1.567,0,0,0,1.427,2.215,1.588,1.588,0,0,0,.414-.056l7.512-2.061a17.945,17.945,0,1,0,8.452-33.775Zm0,32.757a14.8,14.8,0,0,1-7.458-2.016,1.56,1.56,0,0,0-.79-.214,1.542,1.542,0,0,0-.415.056l-4.907,1.346,1.709-3.765a1.566,1.566,0,0,0-.156-1.565,14.809,14.809,0,1,1,12.017,6.158Z" transform="translate(-364.108 -819.382)" fill="#312c30" fill-rule="evenodd"/>
    </g>
    <g id="Group_399" data-name="Group 399" transform="translate(9.225 9.751)">
      <path id="Path_1351" data-name="Path 1351" d="M388.954,840.015a3.073,3.073,0,0,0-2.615-.589c-.679.278-1.113,1.341-1.553,1.884a.651.651,0,0,1-.842.183,11.847,11.847,0,0,1-5.911-5.063.725.725,0,0,1,.092-.99A3.989,3.989,0,0,0,379.2,833.7a3.812,3.812,0,0,0-.48-2.064,4.885,4.885,0,0,0-1.523-2.295,2.087,2.087,0,0,0-2.267.336,4.6,4.6,0,0,0-1.6,3.646,5.162,5.162,0,0,0,.144,1.157,9.6,9.6,0,0,0,1.109,2.558,20.326,20.326,0,0,0,1.159,1.761,17.886,17.886,0,0,0,5.025,4.666,15.183,15.183,0,0,0,3.134,1.49,6.97,6.97,0,0,0,3.648.577,4.416,4.416,0,0,0,3.307-2.461,2.139,2.139,0,0,0,.154-1.255C390.824,840.948,389.653,840.434,388.954,840.015Z" transform="translate(-373.333 -829.133)" fill="#312c30" fill-rule="evenodd"/>
    </g>
  </g>
</svg>
