<svg xmlns="http://www.w3.org/2000/svg" width="28.932" height="19.53" viewBox="0 0 28.932 19.53">
  <path id="Icon_zocial-email" data-name="Icon zocial-email" d="M.072,21.868V5.8q0-.028.084-.53l9.458,8.091L.184,22.426a2.364,2.364,0,0,1-.112-.558ZM1.327,4.152A1.2,1.2,0,0,1,1.8,4.068H27.274a1.58,1.58,0,0,1,.5.084L18.29,12.27l-1.255,1-2.483,2.037-2.483-2.037-1.255-1Zm.028,19.362,9.514-9.123,3.683,2.985,3.683-2.985,9.514,9.123a1.34,1.34,0,0,1-.474.084H1.8a1.264,1.264,0,0,1-.446-.084ZM19.49,13.359l9.43-8.091A1.665,1.665,0,0,1,29,5.8v16.07a2.138,2.138,0,0,1-.084.558Z" transform="translate(-0.072 -4.068)"/>
</svg>
